<?xml version="1.0" encoding="UTF-8" standalone="no"?>
<!-- Created with Inkscape (http://www.inkscape.org/) -->
<svg
   xmlns:dc="http://purl.org/dc/elements/1.1/"
   xmlns:cc="http://creativecommons.org/ns#"
   xmlns:rdf="http://www.w3.org/1999/02/22-rdf-syntax-ns#"
   xmlns:svg="http://www.w3.org/2000/svg"
   xmlns="http://www.w3.org/2000/svg"
   xmlns:sodipodi="http://sodipodi.sourceforge.net/DTD/sodipodi-0.dtd"
   xmlns:inkscape="http://www.inkscape.org/namespaces/inkscape"
   width="744.09448819"
   height="1052.3622047"
   id="svg2"
   sodipodi:version="0.32"
   inkscape:version="0.46"
   sodipodi:docname="battleboat.svg"
   inkscape:output_extension="org.inkscape.output.svg.inkscape">
  <defs
     id="defs4">
    <inkscape:perspective
       sodipodi:type="inkscape:persp3d"
       inkscape:vp_x="0 : 526.18109 : 1"
       inkscape:vp_y="0 : 1000 : 0"
       inkscape:vp_z="744.09448 : 526.18109 : 1"
       inkscape:persp3d-origin="372.04724 : 350.78739 : 1"
       id="perspective10" />
  </defs>
  <sodipodi:namedview
     id="base"
     pagecolor="#ffffff"
     bordercolor="#666666"
     borderopacity="1.0"
     gridtolerance="10000"
     guidetolerance="10"
     objecttolerance="10"
     inkscape:pageopacity="0.0"
     inkscape:pageshadow="2"
     inkscape:zoom="1.286127"
     inkscape:cx="372.04724"
     inkscape:cy="707.08698"
     inkscape:document-units="px"
     inkscape:current-layer="layer1"
     showgrid="false"
     inkscape:window-width="1058"
     inkscape:window-height="767"
     inkscape:window-x="0"
     inkscape:window-y="0" />
  <metadata
     id="metadata7">
    <rdf:RDF>
      <cc:Work
         rdf:about="">
        <dc:format>image/svg+xml</dc:format>
        <dc:type
           rdf:resource="http://purl.org/dc/dcmitype/StillImage" />
      </cc:Work>
    </rdf:RDF>
  </metadata>
  <g
     inkscape:label="Layer 1"
     inkscape:groupmode="layer"
     id="layer1">
    <rect
       style="opacity:1;fill:#999999;fill-opacity:1;stroke:#000000;stroke-width:2.54999995;stroke-linecap:butt;stroke-miterlimit:10;stroke-dasharray:none;stroke-dashoffset:0;stroke-opacity:1"
       id="rect2383"
       width="100"
       height="100"
       x="8.4363756"
       y="8.1023188"
       rx="7"
       ry="7" />
    <rect
       ry="7"
       rx="7"
       y="141.79099"
       x="8.4363756"
       height="100"
       width="100"
       id="rect2385"
       style="opacity:1;fill:#0000ff;fill-opacity:1;stroke:#000000;stroke-width:2.54999995000000013;stroke-linecap:butt;stroke-miterlimit:10;stroke-dasharray:none;stroke-dashoffset:0;stroke-opacity:1" />
    <rect
       style="opacity:1;fill:#0000ff;fill-opacity:1;stroke:#000000;stroke-width:2.54999995;stroke-linecap:butt;stroke-miterlimit:10;stroke-dasharray:none;stroke-dashoffset:0;stroke-opacity:1"
       id="rect2387"
       width="100"
       height="100"
       x="157.90196"
       y="142.62135"
       rx="7"
       ry="7" />
    <path
       sodipodi:type="arc"
       style="fill:#dedede;fill-opacity:1;stroke:#000000;stroke-width:2.54999995;stroke-linecap:butt;stroke-miterlimit:10;stroke-dasharray:none;stroke-dashoffset:0;stroke-opacity:1"
       id="path2393"
       sodipodi:cx="279.83279"
       sodipodi:cy="300.05206"
       sodipodi:rx="22.419838"
       sodipodi:ry="22.419838"
       d="M 302.25263,300.05206 A 22.419838,22.419838 0 1 1 257.41296,300.05206 A 22.419838,22.419838 0 1 1 302.25263,300.05206 z"
       transform="translate(-72.273109,-107.35026)" />
    <path
       d="M 302.25263,300.05206 A 22.419838,22.419838 0 1 1 257.41296,300.05206 A 22.419838,22.419838 0 1 1 302.25263,300.05206 z"
       sodipodi:ry="22.419838"
       sodipodi:rx="22.419838"
       sodipodi:cy="300.05206"
       sodipodi:cx="279.83279"
       id="path2395"
       style="fill:#c4c4c4;fill-opacity:1;stroke:#000000;stroke-width:4.17272711;stroke-linecap:butt;stroke-miterlimit:10;stroke-dasharray:none;stroke-dashoffset:0;stroke-opacity:1"
       sodipodi:type="arc"
       transform="matrix(0.7252828,0,0,0.7252828,4.6017725,-24.920795)" />
    <path
       transform="matrix(0.407808,0,0,0.407808,93.441633,70.338173)"
       sodipodi:type="arc"
       style="fill:#aaaaaa;fill-opacity:1;stroke:#000000;stroke-width:6.25294256;stroke-linecap:butt;stroke-miterlimit:10;stroke-dasharray:none;stroke-dashoffset:0;stroke-opacity:1"
       id="path2397"
       sodipodi:cx="279.83279"
       sodipodi:cy="300.05206"
       sodipodi:rx="22.419838"
       sodipodi:ry="22.419838"
       d="M 302.25263,300.05206 A 22.419838,22.419838 0 1 1 257.41296,300.05206 A 22.419838,22.419838 0 1 1 302.25263,300.05206 z" />
    <g
       id="g3237"
       transform="translate(-47.319145,-139.6678)">
      <path
         id="path3225"
         d="M 144.80217,318.29954 L 130.58633,316.78726 L 130.8443,316.38481 L 128.41561,316.51691 L 128.28304,316.51929 L 132.2858,306.83348 L 120.25147,312.33207 L 111.684,295.55711 L 107.2772,304.89658 L 103.02788,297.1936 L 100.38833,307.7168 L 94.280777,299.91466 L 90.065476,316.21239 L 77.230004,314.03435 L 82.005822,320.29132 L 79.142411,320.82905 L 82.603643,324.03767 L 67.343659,329.59429 L 81.294581,338.49296 L 74.312675,344.74046 L 86.561226,345.0063 L 87.242044,364.42053 L 95.974734,357.2133 L 96.488826,366.13272 L 108.92825,351.21196 L 113.45997,352.50067 L 127.04842,362.13517 L 125.78905,356.01385 L 126.50002,356.22206 L 125.71227,354.20298 L 132.71323,357.61312 L 129.42912,339.68227 L 142.97273,335.76988 L 132.86858,330.62541 L 144.80217,318.29954 z"
         style="opacity:1;fill:#ff5555;fill-opacity:1;stroke:#ffaaaa;stroke-width:2.54999995;stroke-linecap:butt;stroke-miterlimit:10;stroke-dasharray:none;stroke-dashoffset:0;stroke-opacity:1" />
      <path
         style="opacity:1;fill:#ff0000;fill-opacity:1;stroke:none;stroke-width:2.54999995;stroke-linecap:butt;stroke-miterlimit:10;stroke-dasharray:none;stroke-dashoffset:0;stroke-opacity:1"
         d="M 131.51208,322.61791 L 122.17446,321.62619 L 122.34391,321.36227 L 120.74863,321.4489 L 120.66155,321.45046 L 123.29075,315.09871 L 115.38605,318.70457 L 109.75854,307.70389 L 106.86395,313.82853 L 104.0728,308.77707 L 102.33902,315.67797 L 98.327295,310.56149 L 95.558491,321.2492 L 87.127561,319.82089 L 90.264538,323.92408 L 88.383718,324.27671 L 90.657215,326.38086 L 80.633754,330.02478 L 89.797362,335.86034 L 85.211325,339.95733 L 93.256738,340.13166 L 93.70393,352.86311 L 99.439966,348.13676 L 99.777646,353.98593 L 107.94843,344.2012 L 110.92508,345.04631 L 119.8506,351.36442 L 119.02338,347.35018 L 119.49038,347.48672 L 118.97295,346.16265 L 123.5715,348.39895 L 121.41435,336.64027 L 130.31042,334.0746 L 123.67355,330.70097 L 131.51208,322.61791 z"
         id="path3233" />
      <path
         id="path3235"
         d="M 120.32042,326.25445 L 115.09078,325.70108 L 115.18568,325.55383 L 114.29222,325.60217 L 114.24345,325.60304 L 115.71597,322.05891 L 111.28885,324.07089 L 108.13709,317.93277 L 106.51594,321.35018 L 104.95272,318.53158 L 103.9817,322.38212 L 101.73489,319.52725 L 100.18419,325.49074 L 95.462345,324.69376 L 97.219246,326.98326 L 96.165871,327.18002 L 97.43917,328.35408 L 91.825412,330.38731 L 96.957599,333.64341 L 94.389135,335.92944 L 98.895063,336.02671 L 99.145518,343.13056 L 102.35805,340.49336 L 102.54718,343.75707 L 107.12332,338.29742 L 108.79042,338.76896 L 113.78927,342.29433 L 113.32598,340.05447 L 113.58752,340.13066 L 113.29773,339.39186 L 115.8732,340.63966 L 114.66507,334.07858 L 119.64742,332.64701 L 115.93036,330.7646 L 120.32042,326.25445 z"
         style="opacity:1;fill:#d40000;fill-opacity:1;stroke:none;stroke-width:2.54999971;stroke-linecap:butt;stroke-miterlimit:10;stroke-dasharray:none;stroke-dashoffset:0;stroke-opacity:1" />
    </g>
    <rect
       style="opacity:1;fill:#0000ff;fill-opacity:1;stroke:#000000;stroke-width:2.54999995;stroke-linecap:butt;stroke-miterlimit:10;stroke-dasharray:none;stroke-dashoffset:0;stroke-opacity:1"
       id="rect3248"
       width="100"
       height="100"
       x="296.27414"
       y="142.49364"
       rx="7"
       ry="7" />
    <g
       id="g3342"
       transform="translate(7.1135854,101.0409)">
      <path
         id="path3270"
         d="M 376.61548,78.715012 C 371.45222,78.068499 366.24011,77.81118 361.11008,76.906554 C 361.27076,74.371335 363.11703,67.368891 358.35959,70.562404 C 354.29323,72.935523 348.31536,69.935627 348.1344,65.128827 C 347.97032,61.462797 343.65621,56.634853 340.99184,61.317342 C 338.16033,62.489375 333.74342,60.160843 332.90782,64.536479 C 330.16075,66.883723 325.07605,60.728079 324.00712,66.490318 C 323.80924,70.508659 323.35224,77.004559 317.62901,75.904193 C 315.03293,75.011748 310.1725,75.727456 312.54896,79.416197 C 314.19302,84.565298 308.64778,88.009025 304.22225,87.563743 C 299.9921,89.712344 302.86479,95.018175 306.88679,94.48585 C 311.23694,95.752786 310.67705,100.97868 309.9644,103.73163 C 313.22166,105.9532 319.32923,105.47029 319.1797,110.88148 C 319.87225,114.52941 316.91556,118.58602 319.51574,121.84237 C 322.11997,122.66635 326.73829,118.10493 328.59415,122.74375 C 332.93761,124.51704 334.72036,118.75841 336.53226,115.98599 C 338.74262,112.36352 343.99963,111.17486 347.22704,114.16667 C 350.82554,116.43435 353.8332,119.5554 357.61671,121.54297 C 356.50844,116.62484 363.92659,116.29299 363.96019,111.99557 C 363.10802,108.00105 359.24042,102.86982 363.46869,99.465212 C 365.68578,97.902442 372.79028,98.911876 371.12933,94.808106 C 367.26498,93.549088 365.56586,89.525063 368.65468,86.36174 C 371.04172,83.539507 374.49652,81.808711 376.61548,78.715012 z"
         style="fill:#0066ff;fill-opacity:1;stroke:#80b3ff;stroke-width:2.54999995;stroke-linecap:butt;stroke-miterlimit:10;stroke-dasharray:none;stroke-dashoffset:0;stroke-opacity:1" />
      <path
         id="path3272"
         d="M 363.32538,83.033379 C 359.92616,82.594461 356.48582,82.469836 353.11559,81.815137 C 352.30926,80.35193 355.3844,76.321748 352.17583,77.113294 C 349.9898,78.913009 345.78717,78.358315 345.04664,75.324609 C 344.39765,73.484031 343.3519,68.774419 340.70496,70.649341 C 339.61293,72.152108 337.64733,72.552805 336.48213,71.572307 C 335.14374,72.649399 333.08647,75.692942 331.58212,73.079466 C 328.03361,72.440605 328.46897,77.056073 328.31204,79.314225 C 327.08156,82.092472 323.51441,80.868197 321.3972,80.989377 C 319.49033,82.973904 323.22311,87.017148 319.45988,88.14642 C 317.16868,88.064307 312.85597,89.697219 315.26867,92.470262 C 316.96093,93.732181 320.85038,93.996932 320.11985,96.947535 C 318.99939,98.519122 319.13993,100.84211 321.59153,100.11419 C 324.80589,100.28785 326.58526,104.25141 325.15458,106.96757 C 324.39562,108.97688 325.98523,112.90736 328.34112,110.64135 C 330.52572,108.85217 331.78259,113.0496 333.76531,111.89931 C 336.30013,110.39068 336.41415,106.66001 339.32254,105.5213 C 342.11453,104.27356 344.87792,106.49351 346.73727,108.38883 C 348.02644,109.94177 350.65897,110.90422 351.52772,108.51599 C 354.19514,107.47538 356.269,104.40078 353.8898,101.98267 C 352.34521,99.23709 354.17084,95.519847 357.48765,95.86437 C 359.23689,96.134439 361.62791,93.677535 358.94558,93.081169 C 355.49461,91.819816 357.67483,87.489869 360.07487,86.292824 C 361.2482,85.306051 362.50011,84.351005 363.32538,83.033379 z"
         style="fill:#0044aa;fill-opacity:1;stroke:none;stroke-width:2.54999995;stroke-linecap:butt;stroke-miterlimit:10;stroke-dasharray:none;stroke-dashoffset:0;stroke-opacity:1" />
      <path
         id="path3274"
         d="M 352.13373,86.669922 C 350.20669,86.473962 348.28318,86.241969 346.35268,86.081144 C 346.5635,85.156705 347.05044,82.654217 345.34533,83.728256 C 343.66218,84.616325 341.67721,83.251011 341.6373,81.424223 C 341.41713,80.100935 340.04685,79.104289 339.02059,80.237353 C 337.73277,80.251903 336.26028,80.535306 335.58756,81.596828 C 334.4318,81.1063 332.45143,80.718513 332.65627,82.665082 C 332.56723,83.762138 332.50635,85.432995 331.11632,85.614335 C 329.91489,85.162967 327.61407,85.70393 328.55315,87.409107 C 328.9988,89.184138 327.01252,89.94556 325.63709,89.959093 C 324.06258,91.018866 325.64974,92.963506 327.11838,92.879643 C 328.8323,93.682309 326.73282,96.113608 328.78615,96.337929 C 330.73273,96.400101 331.36738,98.390292 330.87942,100.01263 C 330.50127,101.13255 330.7622,103.30873 332.40627,102.39684 C 333.42019,101.64346 334.28663,102.35594 335.11955,102.78982 C 336.75411,102.71841 337.0046,100.78772 337.85087,99.759223 C 338.9118,98.7315 340.84102,98.834408 341.79231,99.962308 C 343.04061,100.80361 344.1336,101.89243 345.49694,102.55016 C 344.68533,100.89808 347.2953,100.39486 347.34998,98.902925 C 347.39756,97.396205 345.57178,95.465906 347.22592,94.280862 C 348.11041,93.879773 350.83155,93.816886 349.50448,92.351375 C 348.20313,91.239127 348.52153,89.421562 350.04578,88.719559 C 350.7963,88.096806 351.55809,87.465637 352.13373,86.669922 z"
         style="fill:#003380;fill-opacity:1;stroke:none;stroke-width:2.54999971;stroke-linecap:butt;stroke-miterlimit:10;stroke-dasharray:none;stroke-dashoffset:0;stroke-opacity:1" />
    </g>
    <g
       id="g3351"
       style="stroke:#000000;stroke-width:1;stroke-miterlimit:4;stroke-dasharray:1,1;stroke-dashoffset:0">
      <path
         id="path3347"
         d="M 207.55969,163.09097 C 207.55969,222.31264 207.55969,222.31264 207.55969,222.31264"
         style="fill:none;fill-rule:evenodd;stroke:#000000;stroke-width:1;stroke-linecap:butt;stroke-linejoin:miter;stroke-opacity:1;stroke-miterlimit:4;stroke-dasharray:1,1;stroke-dashoffset:0" />
      <path
         style="fill:none;fill-rule:evenodd;stroke:#000000;stroke-width:1;stroke-linecap:butt;stroke-linejoin:miter;stroke-miterlimit:4;stroke-dasharray:1,1;stroke-opacity:1;stroke-dashoffset:0"
         d="M 237.17052,192.7018 C 177.94885,192.7018 177.94885,192.7018 177.94885,192.7018"
         id="path3349" />
    </g>
    <rect
       style="opacity:1;fill:#0000ff;fill-opacity:1;stroke:#000000;stroke-width:0.49731839;stroke-linecap:butt;stroke-miterlimit:10;stroke-dasharray:none;stroke-dashoffset:0;stroke-opacity:1"
       id="rect3355"
       width="19.502682"
       height="19.502682"
       x="30.511728"
       y="271.1199"
       rx="1.3651876"
       ry="1.3651876"
       inkscape:export-filename="/home/poletti/sviluppo/perl/bogaser/www/public/images/battleboat/hit.png"
       inkscape:export-xdpi="96"
       inkscape:export-ydpi="96" />
    <rect
       ry="1.3651876"
       rx="1.3651876"
       y="271.28598"
       x="60.404842"
       height="19.502682"
       width="19.502682"
       id="rect3357"
       style="opacity:1;fill:#0000ff;fill-opacity:1;stroke:#000000;stroke-width:0.49731839;stroke-linecap:butt;stroke-miterlimit:10;stroke-dasharray:none;stroke-dashoffset:0;stroke-opacity:1"
       inkscape:export-filename="/home/poletti/sviluppo/perl/bogaser/www/public/images/battleboat/aim.png"
       inkscape:export-xdpi="96"
       inkscape:export-ydpi="96" />
    <path
       transform="matrix(0.1463328,0,0,0.1463328,29.140714,237.14558)"
       d="M 302.25263,300.05206 A 22.419838,22.419838 0 1 1 257.41296,300.05206 A 22.419838,22.419838 0 1 1 302.25263,300.05206 z"
       sodipodi:ry="22.419838"
       sodipodi:rx="22.419838"
       sodipodi:cy="300.05206"
       sodipodi:cx="279.83279"
       id="path3359"
       style="fill:#dedede;fill-opacity:1;stroke:#000000;stroke-width:2.54999995;stroke-linecap:butt;stroke-miterlimit:10;stroke-dasharray:none;stroke-dashoffset:0;stroke-opacity:1"
       sodipodi:type="arc"
       inkscape:export-filename="/home/poletti/sviluppo/perl/bogaser/www/public/images/battleboat/aim.png"
       inkscape:export-xdpi="96"
       inkscape:export-ydpi="96" />
    <path
       d="M 302.25263,300.05206 A 22.419838,22.419838 0 1 1 257.41296,300.05206 A 22.419838,22.419838 0 1 1 302.25263,300.05206 z"
       sodipodi:ry="22.419838"
       sodipodi:rx="22.419838"
       sodipodi:cy="300.05206"
       sodipodi:cx="279.83279"
       id="path3363"
       style="fill:#aaaaaa;fill-opacity:1;stroke:#000000;stroke-width:6.25294256;stroke-linecap:butt;stroke-miterlimit:10;stroke-dasharray:none;stroke-dashoffset:0;stroke-opacity:1"
       sodipodi:type="arc"
       transform="matrix(7.9533496e-2,0,0,7.9533496e-2,47.833351,257.18885)"
       inkscape:export-filename="/home/poletti/sviluppo/perl/bogaser/www/public/images/battleboat/aim.png"
       inkscape:export-xdpi="96"
       inkscape:export-ydpi="96" />
    <g
       transform="matrix(0.1950268,0,0,0.1950268,19.637906,216.22792)"
       id="g3365"
       inkscape:export-filename="/home/poletti/sviluppo/perl/bogaser/www/public/images/battleboat/hit.png"
       inkscape:export-xdpi="96"
       inkscape:export-ydpi="96">
      <path
         style="opacity:1;fill:#ff5555;fill-opacity:1;stroke:#ffaaaa;stroke-width:2.54999995;stroke-linecap:butt;stroke-miterlimit:10;stroke-dasharray:none;stroke-dashoffset:0;stroke-opacity:1"
         d="M 144.80217,318.29954 L 130.58633,316.78726 L 130.8443,316.38481 L 128.41561,316.51691 L 128.28304,316.51929 L 132.2858,306.83348 L 120.25147,312.33207 L 111.684,295.55711 L 107.2772,304.89658 L 103.02788,297.1936 L 100.38833,307.7168 L 94.280777,299.91466 L 90.065476,316.21239 L 77.230004,314.03435 L 82.005822,320.29132 L 79.142411,320.82905 L 82.603643,324.03767 L 67.343659,329.59429 L 81.294581,338.49296 L 74.312675,344.74046 L 86.561226,345.0063 L 87.242044,364.42053 L 95.974734,357.2133 L 96.488826,366.13272 L 108.92825,351.21196 L 113.45997,352.50067 L 127.04842,362.13517 L 125.78905,356.01385 L 126.50002,356.22206 L 125.71227,354.20298 L 132.71323,357.61312 L 129.42912,339.68227 L 142.97273,335.76988 L 132.86858,330.62541 L 144.80217,318.29954 z"
         id="path3367" />
      <path
         id="path3369"
         d="M 131.51208,322.61791 L 122.17446,321.62619 L 122.34391,321.36227 L 120.74863,321.4489 L 120.66155,321.45046 L 123.29075,315.09871 L 115.38605,318.70457 L 109.75854,307.70389 L 106.86395,313.82853 L 104.0728,308.77707 L 102.33902,315.67797 L 98.327295,310.56149 L 95.558491,321.2492 L 87.127561,319.82089 L 90.264538,323.92408 L 88.383718,324.27671 L 90.657215,326.38086 L 80.633754,330.02478 L 89.797362,335.86034 L 85.211325,339.95733 L 93.256738,340.13166 L 93.70393,352.86311 L 99.439966,348.13676 L 99.777646,353.98593 L 107.94843,344.2012 L 110.92508,345.04631 L 119.8506,351.36442 L 119.02338,347.35018 L 119.49038,347.48672 L 118.97295,346.16265 L 123.5715,348.39895 L 121.41435,336.64027 L 130.31042,334.0746 L 123.67355,330.70097 L 131.51208,322.61791 z"
         style="opacity:1;fill:#ff0000;fill-opacity:1;stroke:none;stroke-width:2.54999995;stroke-linecap:butt;stroke-miterlimit:10;stroke-dasharray:none;stroke-dashoffset:0;stroke-opacity:1" />
      <path
         style="opacity:1;fill:#d40000;fill-opacity:1;stroke:none;stroke-width:2.54999971;stroke-linecap:butt;stroke-miterlimit:10;stroke-dasharray:none;stroke-dashoffset:0;stroke-opacity:1"
         d="M 120.32042,326.25445 L 115.09078,325.70108 L 115.18568,325.55383 L 114.29222,325.60217 L 114.24345,325.60304 L 115.71597,322.05891 L 111.28885,324.07089 L 108.13709,317.93277 L 106.51594,321.35018 L 104.95272,318.53158 L 103.9817,322.38212 L 101.73489,319.52725 L 100.18419,325.49074 L 95.462345,324.69376 L 97.219246,326.98326 L 96.165871,327.18002 L 97.43917,328.35408 L 91.825412,330.38731 L 96.957599,333.64341 L 94.389135,335.92944 L 98.895063,336.02671 L 99.145518,343.13056 L 102.35805,340.49336 L 102.54718,343.75707 L 107.12332,338.29742 L 108.79042,338.76896 L 113.78927,342.29433 L 113.32598,340.05447 L 113.58752,340.13066 L 113.29773,339.39186 L 115.8732,340.63966 L 114.66507,334.07858 L 119.64742,332.64701 L 115.93036,330.7646 L 120.32042,326.25445 z"
         id="path3371" />
    </g>
    <rect
       ry="1.3651876"
       rx="1.3651876"
       y="271.26044"
       x="88.079285"
       height="19.502682"
       width="19.502682"
       id="rect3373"
       style="opacity:1;fill:#0000ff;fill-opacity:1;stroke:#000000;stroke-width:0.49731839;stroke-linecap:butt;stroke-miterlimit:10;stroke-dasharray:none;stroke-dashoffset:0;stroke-opacity:1"
       inkscape:export-filename="/home/poletti/sviluppo/perl/bogaser/www/public/images/battleboat/water.png"
       inkscape:export-xdpi="96"
       inkscape:export-ydpi="96" />
    <g
       transform="matrix(0.1950268,0,0,0.1950268,31.685218,263.17607)"
       id="g3375"
       inkscape:export-filename="/home/poletti/sviluppo/perl/bogaser/www/public/images/battleboat/water.png"
       inkscape:export-xdpi="96"
       inkscape:export-ydpi="96">
      <path
         style="fill:#0066ff;fill-opacity:1;stroke:#80b3ff;stroke-width:2.54999995;stroke-linecap:butt;stroke-miterlimit:10;stroke-dasharray:none;stroke-dashoffset:0;stroke-opacity:1"
         d="M 376.61548,78.715012 C 371.45222,78.068499 366.24011,77.81118 361.11008,76.906554 C 361.27076,74.371335 363.11703,67.368891 358.35959,70.562404 C 354.29323,72.935523 348.31536,69.935627 348.1344,65.128827 C 347.97032,61.462797 343.65621,56.634853 340.99184,61.317342 C 338.16033,62.489375 333.74342,60.160843 332.90782,64.536479 C 330.16075,66.883723 325.07605,60.728079 324.00712,66.490318 C 323.80924,70.508659 323.35224,77.004559 317.62901,75.904193 C 315.03293,75.011748 310.1725,75.727456 312.54896,79.416197 C 314.19302,84.565298 308.64778,88.009025 304.22225,87.563743 C 299.9921,89.712344 302.86479,95.018175 306.88679,94.48585 C 311.23694,95.752786 310.67705,100.97868 309.9644,103.73163 C 313.22166,105.9532 319.32923,105.47029 319.1797,110.88148 C 319.87225,114.52941 316.91556,118.58602 319.51574,121.84237 C 322.11997,122.66635 326.73829,118.10493 328.59415,122.74375 C 332.93761,124.51704 334.72036,118.75841 336.53226,115.98599 C 338.74262,112.36352 343.99963,111.17486 347.22704,114.16667 C 350.82554,116.43435 353.8332,119.5554 357.61671,121.54297 C 356.50844,116.62484 363.92659,116.29299 363.96019,111.99557 C 363.10802,108.00105 359.24042,102.86982 363.46869,99.465212 C 365.68578,97.902442 372.79028,98.911876 371.12933,94.808106 C 367.26498,93.549088 365.56586,89.525063 368.65468,86.36174 C 371.04172,83.539507 374.49652,81.808711 376.61548,78.715012 z"
         id="path3377" />
      <path
         style="fill:#0044aa;fill-opacity:1;stroke:none;stroke-width:2.54999995;stroke-linecap:butt;stroke-miterlimit:10;stroke-dasharray:none;stroke-dashoffset:0;stroke-opacity:1"
         d="M 363.32538,83.033379 C 359.92616,82.594461 356.48582,82.469836 353.11559,81.815137 C 352.30926,80.35193 355.3844,76.321748 352.17583,77.113294 C 349.9898,78.913009 345.78717,78.358315 345.04664,75.324609 C 344.39765,73.484031 343.3519,68.774419 340.70496,70.649341 C 339.61293,72.152108 337.64733,72.552805 336.48213,71.572307 C 335.14374,72.649399 333.08647,75.692942 331.58212,73.079466 C 328.03361,72.440605 328.46897,77.056073 328.31204,79.314225 C 327.08156,82.092472 323.51441,80.868197 321.3972,80.989377 C 319.49033,82.973904 323.22311,87.017148 319.45988,88.14642 C 317.16868,88.064307 312.85597,89.697219 315.26867,92.470262 C 316.96093,93.732181 320.85038,93.996932 320.11985,96.947535 C 318.99939,98.519122 319.13993,100.84211 321.59153,100.11419 C 324.80589,100.28785 326.58526,104.25141 325.15458,106.96757 C 324.39562,108.97688 325.98523,112.90736 328.34112,110.64135 C 330.52572,108.85217 331.78259,113.0496 333.76531,111.89931 C 336.30013,110.39068 336.41415,106.66001 339.32254,105.5213 C 342.11453,104.27356 344.87792,106.49351 346.73727,108.38883 C 348.02644,109.94177 350.65897,110.90422 351.52772,108.51599 C 354.19514,107.47538 356.269,104.40078 353.8898,101.98267 C 352.34521,99.23709 354.17084,95.519847 357.48765,95.86437 C 359.23689,96.134439 361.62791,93.677535 358.94558,93.081169 C 355.49461,91.819816 357.67483,87.489869 360.07487,86.292824 C 361.2482,85.306051 362.50011,84.351005 363.32538,83.033379 z"
         id="path3379" />
      <path
         style="fill:#003380;fill-opacity:1;stroke:none;stroke-width:2.54999971;stroke-linecap:butt;stroke-miterlimit:10;stroke-dasharray:none;stroke-dashoffset:0;stroke-opacity:1"
         d="M 352.13373,86.669922 C 350.20669,86.473962 348.28318,86.241969 346.35268,86.081144 C 346.5635,85.156705 347.05044,82.654217 345.34533,83.728256 C 343.66218,84.616325 341.67721,83.251011 341.6373,81.424223 C 341.41713,80.100935 340.04685,79.104289 339.02059,80.237353 C 337.73277,80.251903 336.26028,80.535306 335.58756,81.596828 C 334.4318,81.1063 332.45143,80.718513 332.65627,82.665082 C 332.56723,83.762138 332.50635,85.432995 331.11632,85.614335 C 329.91489,85.162967 327.61407,85.70393 328.55315,87.409107 C 328.9988,89.184138 327.01252,89.94556 325.63709,89.959093 C 324.06258,91.018866 325.64974,92.963506 327.11838,92.879643 C 328.8323,93.682309 326.73282,96.113608 328.78615,96.337929 C 330.73273,96.400101 331.36738,98.390292 330.87942,100.01263 C 330.50127,101.13255 330.7622,103.30873 332.40627,102.39684 C 333.42019,101.64346 334.28663,102.35594 335.11955,102.78982 C 336.75411,102.71841 337.0046,100.78772 337.85087,99.759223 C 338.9118,98.7315 340.84102,98.834408 341.79231,99.962308 C 343.04061,100.80361 344.1336,101.89243 345.49694,102.55016 C 344.68533,100.89808 347.2953,100.39486 347.34998,98.902925 C 347.39756,97.396205 345.57178,95.465906 347.22592,94.280862 C 348.11041,93.879773 350.83155,93.816886 349.50448,92.351375 C 348.20313,91.239127 348.52153,89.421562 350.04578,88.719559 C 350.7963,88.096806 351.55809,87.465637 352.13373,86.669922 z"
         id="path3381" />
    </g>
    <g
       style="stroke:#000000;stroke-width:2.02536273;stroke-miterlimit:4;stroke-dasharray:2.02536267, 2.02536267;stroke-dashoffset:0"
       id="g3383"
       transform="matrix(0.1950268,0,0,0.1950268,29.609728,243.47102)"
       inkscape:export-filename="/home/poletti/sviluppo/perl/bogaser/www/public/images/battleboat/aim.png"
       inkscape:export-xdpi="96"
       inkscape:export-ydpi="96">
      <path
         style="fill:none;fill-rule:evenodd;stroke:#000000;stroke-width:2.02536273;stroke-linecap:butt;stroke-linejoin:miter;stroke-miterlimit:4;stroke-dasharray:2.02536267, 2.02536267;stroke-dashoffset:0;stroke-opacity:1"
         d="M 207.55969,163.09097 C 207.55969,222.31264 207.55969,222.31264 207.55969,222.31264"
         id="path3385" />
      <path
         id="path3387"
         d="M 237.17052,192.7018 C 177.94885,192.7018 177.94885,192.7018 177.94885,192.7018"
         style="fill:none;fill-rule:evenodd;stroke:#000000;stroke-width:2.02536273;stroke-linecap:butt;stroke-linejoin:miter;stroke-miterlimit:4;stroke-dasharray:2.02536267, 2.02536267;stroke-dashoffset:0;stroke-opacity:1" />
    </g>
    <rect
       style="opacity:1;fill:#0000ff;fill-opacity:1;stroke:#000000;stroke-width:0.49731839;stroke-linecap:butt;stroke-miterlimit:10;stroke-dasharray:none;stroke-dashoffset:0;stroke-opacity:1"
       id="rect3389"
       width="19.502682"
       height="19.502682"
       x="116.13322"
       y="271.28598"
       rx="1.3651876"
       ry="1.3651876"
       inkscape:export-filename="/home/poletti/sviluppo/perl/bogaser/www/public/images/battleboat/part.png"
       inkscape:export-xdpi="96"
       inkscape:export-ydpi="96" />
    <rect
       ry="1.0816609"
       rx="1.0816609"
       y="273.31116"
       x="118.15842"
       height="15.452299"
       width="15.452299"
       id="rect3401"
       style="opacity:1;fill:#808080;fill-opacity:1;stroke:#000000;stroke-width:0.39403361;stroke-linecap:butt;stroke-miterlimit:10;stroke-dasharray:none;stroke-dashoffset:0;stroke-opacity:1"
       inkscape:export-filename="/home/poletti/sviluppo/perl/bogaser/www/public/images/battleboat/part.png"
       inkscape:export-xdpi="96"
       inkscape:export-ydpi="96" />
    <rect
       inkscape:export-ydpi="96"
       inkscape:export-xdpi="96"
       inkscape:export-filename="/home/poletti/sviluppo/perl/bogaser/www/public/images/battleboat/blank.png"
       style="opacity:1;fill:#0000ff;fill-opacity:1;stroke:#000000;stroke-width:0.49731839;stroke-linecap:butt;stroke-miterlimit:10;stroke-dasharray:none;stroke-dashoffset:0;stroke-opacity:1"
       id="rect3403"
       width="19.502682"
       height="19.502682"
       x="144.43816"
       y="271.12283"
       rx="1.3651876"
       ry="1.3651876" />
    <rect
       inkscape:export-ydpi="96"
       inkscape:export-xdpi="96"
       inkscape:export-filename="/home/poletti/sviluppo/perl/bogaser/www/public/images/battleboat/thit.png"
       ry="1.3651876"
       rx="1.3651876"
       y="305.71225"
       x="31.327585"
       height="19.502682"
       width="19.502682"
       id="rect2426"
       style="opacity:1;fill:none;fill-opacity:1;stroke:none;stroke-width:0.49731839000000000;stroke-linecap:butt;stroke-miterlimit:10;stroke-dasharray:none;stroke-dashoffset:0;stroke-opacity:1" />
    <rect
       inkscape:export-ydpi="96"
       inkscape:export-xdpi="96"
       inkscape:export-filename="/home/poletti/sviluppo/perl/bogaser/www/public/images/battleboat/taim.png"
       style="opacity:1;fill:none;fill-opacity:1;stroke:none;stroke-width:0.49731839000000000;stroke-linecap:butt;stroke-miterlimit:10;stroke-dasharray:none;stroke-dashoffset:0;stroke-opacity:1"
       id="rect2428"
       width="19.502682"
       height="19.502682"
       x="61.220699"
       y="305.87833"
       rx="1.3651876"
       ry="1.3651876" />
    <path
       inkscape:export-ydpi="96"
       inkscape:export-xdpi="96"
       inkscape:export-filename="/home/poletti/sviluppo/perl/bogaser/www/public/images/battleboat/taim.png"
       sodipodi:type="arc"
       style="fill:#dedede;fill-opacity:1;stroke:#000000;stroke-width:2.54999995;stroke-linecap:butt;stroke-miterlimit:10;stroke-dasharray:none;stroke-dashoffset:0;stroke-opacity:1"
       id="path2430"
       sodipodi:cx="279.83279"
       sodipodi:cy="300.05206"
       sodipodi:rx="22.419838"
       sodipodi:ry="22.419838"
       d="M 302.25263,300.05206 A 22.419838,22.419838 0 1 1 257.41296,300.05206 A 22.419838,22.419838 0 1 1 302.25263,300.05206 z"
       transform="matrix(0.1463328,0,0,0.1463328,29.956571,271.73793)" />
    <path
       inkscape:export-ydpi="96"
       inkscape:export-xdpi="96"
       inkscape:export-filename="/home/poletti/sviluppo/perl/bogaser/www/public/images/battleboat/taim.png"
       transform="matrix(7.9533496e-2,0,0,7.9533496e-2,48.649208,291.7812)"
       sodipodi:type="arc"
       style="fill:#aaaaaa;fill-opacity:1;stroke:#000000;stroke-width:6.25294256;stroke-linecap:butt;stroke-miterlimit:10;stroke-dasharray:none;stroke-dashoffset:0;stroke-opacity:1"
       id="path2432"
       sodipodi:cx="279.83279"
       sodipodi:cy="300.05206"
       sodipodi:rx="22.419838"
       sodipodi:ry="22.419838"
       d="M 302.25263,300.05206 A 22.419838,22.419838 0 1 1 257.41296,300.05206 A 22.419838,22.419838 0 1 1 302.25263,300.05206 z" />
    <g
       inkscape:export-ydpi="96"
       inkscape:export-xdpi="96"
       inkscape:export-filename="/home/poletti/sviluppo/perl/bogaser/www/public/images/battleboat/thit.png"
       id="g2434"
       transform="matrix(0.1950268,0,0,0.1950268,20.453763,250.82027)">
      <path
         id="path2436"
         d="M 144.80217,318.29954 L 130.58633,316.78726 L 130.8443,316.38481 L 128.41561,316.51691 L 128.28304,316.51929 L 132.2858,306.83348 L 120.25147,312.33207 L 111.684,295.55711 L 107.2772,304.89658 L 103.02788,297.1936 L 100.38833,307.7168 L 94.280777,299.91466 L 90.065476,316.21239 L 77.230004,314.03435 L 82.005822,320.29132 L 79.142411,320.82905 L 82.603643,324.03767 L 67.343659,329.59429 L 81.294581,338.49296 L 74.312675,344.74046 L 86.561226,345.0063 L 87.242044,364.42053 L 95.974734,357.2133 L 96.488826,366.13272 L 108.92825,351.21196 L 113.45997,352.50067 L 127.04842,362.13517 L 125.78905,356.01385 L 126.50002,356.22206 L 125.71227,354.20298 L 132.71323,357.61312 L 129.42912,339.68227 L 142.97273,335.76988 L 132.86858,330.62541 L 144.80217,318.29954 z"
         style="opacity:1;fill:#ff5555;fill-opacity:1;stroke:#ffaaaa;stroke-width:2.54999995;stroke-linecap:butt;stroke-miterlimit:10;stroke-dasharray:none;stroke-dashoffset:0;stroke-opacity:1" />
      <path
         style="opacity:1;fill:#ff0000;fill-opacity:1;stroke:none;stroke-width:2.54999995;stroke-linecap:butt;stroke-miterlimit:10;stroke-dasharray:none;stroke-dashoffset:0;stroke-opacity:1"
         d="M 131.51208,322.61791 L 122.17446,321.62619 L 122.34391,321.36227 L 120.74863,321.4489 L 120.66155,321.45046 L 123.29075,315.09871 L 115.38605,318.70457 L 109.75854,307.70389 L 106.86395,313.82853 L 104.0728,308.77707 L 102.33902,315.67797 L 98.327295,310.56149 L 95.558491,321.2492 L 87.127561,319.82089 L 90.264538,323.92408 L 88.383718,324.27671 L 90.657215,326.38086 L 80.633754,330.02478 L 89.797362,335.86034 L 85.211325,339.95733 L 93.256738,340.13166 L 93.70393,352.86311 L 99.439966,348.13676 L 99.777646,353.98593 L 107.94843,344.2012 L 110.92508,345.04631 L 119.8506,351.36442 L 119.02338,347.35018 L 119.49038,347.48672 L 118.97295,346.16265 L 123.5715,348.39895 L 121.41435,336.64027 L 130.31042,334.0746 L 123.67355,330.70097 L 131.51208,322.61791 z"
         id="path2438" />
      <path
         id="path2440"
         d="M 120.32042,326.25445 L 115.09078,325.70108 L 115.18568,325.55383 L 114.29222,325.60217 L 114.24345,325.60304 L 115.71597,322.05891 L 111.28885,324.07089 L 108.13709,317.93277 L 106.51594,321.35018 L 104.95272,318.53158 L 103.9817,322.38212 L 101.73489,319.52725 L 100.18419,325.49074 L 95.462345,324.69376 L 97.219246,326.98326 L 96.165871,327.18002 L 97.43917,328.35408 L 91.825412,330.38731 L 96.957599,333.64341 L 94.389135,335.92944 L 98.895063,336.02671 L 99.145518,343.13056 L 102.35805,340.49336 L 102.54718,343.75707 L 107.12332,338.29742 L 108.79042,338.76896 L 113.78927,342.29433 L 113.32598,340.05447 L 113.58752,340.13066 L 113.29773,339.39186 L 115.8732,340.63966 L 114.66507,334.07858 L 119.64742,332.64701 L 115.93036,330.7646 L 120.32042,326.25445 z"
         style="opacity:1;fill:#d40000;fill-opacity:1;stroke:none;stroke-width:2.54999971;stroke-linecap:butt;stroke-miterlimit:10;stroke-dasharray:none;stroke-dashoffset:0;stroke-opacity:1" />
    </g>
    <rect
       inkscape:export-ydpi="96"
       inkscape:export-xdpi="96"
       inkscape:export-filename="/home/poletti/sviluppo/perl/bogaser/www/public/images/battleboat/twater.png"
       style="opacity:1;fill:none;fill-opacity:1;stroke:none;stroke-width:0.49731839000000000;stroke-linecap:butt;stroke-miterlimit:10;stroke-dasharray:none;stroke-dashoffset:0;stroke-opacity:1"
       id="rect2442"
       width="19.502682"
       height="19.502682"
       x="88.895142"
       y="305.85278"
       rx="1.3651876"
       ry="1.3651876" />
    <g
       inkscape:export-ydpi="96"
       inkscape:export-xdpi="96"
       inkscape:export-filename="/home/poletti/sviluppo/perl/bogaser/www/public/images/battleboat/twater.png"
       id="g2444"
       transform="matrix(0.1950268,0,0,0.1950268,32.501075,297.76842)">
      <path
         id="path2446"
         d="M 376.61548,78.715012 C 371.45222,78.068499 366.24011,77.81118 361.11008,76.906554 C 361.27076,74.371335 363.11703,67.368891 358.35959,70.562404 C 354.29323,72.935523 348.31536,69.935627 348.1344,65.128827 C 347.97032,61.462797 343.65621,56.634853 340.99184,61.317342 C 338.16033,62.489375 333.74342,60.160843 332.90782,64.536479 C 330.16075,66.883723 325.07605,60.728079 324.00712,66.490318 C 323.80924,70.508659 323.35224,77.004559 317.62901,75.904193 C 315.03293,75.011748 310.1725,75.727456 312.54896,79.416197 C 314.19302,84.565298 308.64778,88.009025 304.22225,87.563743 C 299.9921,89.712344 302.86479,95.018175 306.88679,94.48585 C 311.23694,95.752786 310.67705,100.97868 309.9644,103.73163 C 313.22166,105.9532 319.32923,105.47029 319.1797,110.88148 C 319.87225,114.52941 316.91556,118.58602 319.51574,121.84237 C 322.11997,122.66635 326.73829,118.10493 328.59415,122.74375 C 332.93761,124.51704 334.72036,118.75841 336.53226,115.98599 C 338.74262,112.36352 343.99963,111.17486 347.22704,114.16667 C 350.82554,116.43435 353.8332,119.5554 357.61671,121.54297 C 356.50844,116.62484 363.92659,116.29299 363.96019,111.99557 C 363.10802,108.00105 359.24042,102.86982 363.46869,99.465212 C 365.68578,97.902442 372.79028,98.911876 371.12933,94.808106 C 367.26498,93.549088 365.56586,89.525063 368.65468,86.36174 C 371.04172,83.539507 374.49652,81.808711 376.61548,78.715012 z"
         style="fill:#0066ff;fill-opacity:1;stroke:#80b3ff;stroke-width:2.54999995;stroke-linecap:butt;stroke-miterlimit:10;stroke-dasharray:none;stroke-dashoffset:0;stroke-opacity:1" />
      <path
         id="path2448"
         d="M 363.32538,83.033379 C 359.92616,82.594461 356.48582,82.469836 353.11559,81.815137 C 352.30926,80.35193 355.3844,76.321748 352.17583,77.113294 C 349.9898,78.913009 345.78717,78.358315 345.04664,75.324609 C 344.39765,73.484031 343.3519,68.774419 340.70496,70.649341 C 339.61293,72.152108 337.64733,72.552805 336.48213,71.572307 C 335.14374,72.649399 333.08647,75.692942 331.58212,73.079466 C 328.03361,72.440605 328.46897,77.056073 328.31204,79.314225 C 327.08156,82.092472 323.51441,80.868197 321.3972,80.989377 C 319.49033,82.973904 323.22311,87.017148 319.45988,88.14642 C 317.16868,88.064307 312.85597,89.697219 315.26867,92.470262 C 316.96093,93.732181 320.85038,93.996932 320.11985,96.947535 C 318.99939,98.519122 319.13993,100.84211 321.59153,100.11419 C 324.80589,100.28785 326.58526,104.25141 325.15458,106.96757 C 324.39562,108.97688 325.98523,112.90736 328.34112,110.64135 C 330.52572,108.85217 331.78259,113.0496 333.76531,111.89931 C 336.30013,110.39068 336.41415,106.66001 339.32254,105.5213 C 342.11453,104.27356 344.87792,106.49351 346.73727,108.38883 C 348.02644,109.94177 350.65897,110.90422 351.52772,108.51599 C 354.19514,107.47538 356.269,104.40078 353.8898,101.98267 C 352.34521,99.23709 354.17084,95.519847 357.48765,95.86437 C 359.23689,96.134439 361.62791,93.677535 358.94558,93.081169 C 355.49461,91.819816 357.67483,87.489869 360.07487,86.292824 C 361.2482,85.306051 362.50011,84.351005 363.32538,83.033379 z"
         style="fill:#0044aa;fill-opacity:1;stroke:none;stroke-width:2.54999995;stroke-linecap:butt;stroke-miterlimit:10;stroke-dasharray:none;stroke-dashoffset:0;stroke-opacity:1" />
      <path
         id="path2450"
         d="M 352.13373,86.669922 C 350.20669,86.473962 348.28318,86.241969 346.35268,86.081144 C 346.5635,85.156705 347.05044,82.654217 345.34533,83.728256 C 343.66218,84.616325 341.67721,83.251011 341.6373,81.424223 C 341.41713,80.100935 340.04685,79.104289 339.02059,80.237353 C 337.73277,80.251903 336.26028,80.535306 335.58756,81.596828 C 334.4318,81.1063 332.45143,80.718513 332.65627,82.665082 C 332.56723,83.762138 332.50635,85.432995 331.11632,85.614335 C 329.91489,85.162967 327.61407,85.70393 328.55315,87.409107 C 328.9988,89.184138 327.01252,89.94556 325.63709,89.959093 C 324.06258,91.018866 325.64974,92.963506 327.11838,92.879643 C 328.8323,93.682309 326.73282,96.113608 328.78615,96.337929 C 330.73273,96.400101 331.36738,98.390292 330.87942,100.01263 C 330.50127,101.13255 330.7622,103.30873 332.40627,102.39684 C 333.42019,101.64346 334.28663,102.35594 335.11955,102.78982 C 336.75411,102.71841 337.0046,100.78772 337.85087,99.759223 C 338.9118,98.7315 340.84102,98.834408 341.79231,99.962308 C 343.04061,100.80361 344.1336,101.89243 345.49694,102.55016 C 344.68533,100.89808 347.2953,100.39486 347.34998,98.902925 C 347.39756,97.396205 345.57178,95.465906 347.22592,94.280862 C 348.11041,93.879773 350.83155,93.816886 349.50448,92.351375 C 348.20313,91.239127 348.52153,89.421562 350.04578,88.719559 C 350.7963,88.096806 351.55809,87.465637 352.13373,86.669922 z"
         style="fill:#003380;fill-opacity:1;stroke:none;stroke-width:2.54999971;stroke-linecap:butt;stroke-miterlimit:10;stroke-dasharray:none;stroke-dashoffset:0;stroke-opacity:1" />
    </g>
    <g
       inkscape:export-ydpi="96"
       inkscape:export-xdpi="96"
       inkscape:export-filename="/home/poletti/sviluppo/perl/bogaser/www/public/images/battleboat/taim.png"
       transform="matrix(0.1950268,0,0,0.1950268,30.425585,278.06337)"
       id="g2452"
       style="stroke:#000000;stroke-width:2.02536273;stroke-miterlimit:4;stroke-dasharray:2.02536267, 2.02536267;stroke-dashoffset:0">
      <path
         id="path2454"
         d="M 207.55969,163.09097 C 207.55969,222.31264 207.55969,222.31264 207.55969,222.31264"
         style="fill:none;fill-rule:evenodd;stroke:#000000;stroke-width:2.02536273;stroke-linecap:butt;stroke-linejoin:miter;stroke-miterlimit:4;stroke-dasharray:2.02536267, 2.02536267;stroke-dashoffset:0;stroke-opacity:1" />
      <path
         style="fill:none;fill-rule:evenodd;stroke:#000000;stroke-width:2.02536273;stroke-linecap:butt;stroke-linejoin:miter;stroke-miterlimit:4;stroke-dasharray:2.02536267, 2.02536267;stroke-dashoffset:0;stroke-opacity:1"
         d="M 237.17052,192.7018 C 177.94885,192.7018 177.94885,192.7018 177.94885,192.7018"
         id="path2456" />
    </g>
    <rect
       inkscape:export-ydpi="96"
       inkscape:export-xdpi="96"
       inkscape:export-filename="/home/poletti/sviluppo/perl/bogaser/www/public/images/battleboat/tpart.png"
       ry="1.3651876"
       rx="1.3651876"
       y="305.87833"
       x="116.94907"
       height="19.502682"
       width="19.502682"
       id="rect2458"
       style="opacity:1;fill:#666666;fill-opacity:1;stroke:none;stroke-width:0.49731839000000000;stroke-linecap:butt;stroke-miterlimit:10;stroke-dasharray:none;stroke-dashoffset:0;stroke-opacity:1" />
    <rect
       ry="1.3651876"
       rx="1.3651876"
       y="305.71518"
       x="145.25401"
       height="19.502682"
       width="19.502682"
       id="rect2462"
       style="opacity:1;fill:none;fill-opacity:1;stroke:none;stroke-width:0.49731839000000000;stroke-linecap:butt;stroke-miterlimit:10;stroke-dasharray:none;stroke-dashoffset:0;stroke-opacity:1"
       inkscape:export-filename="/home/poletti/sviluppo/perl/bogaser/www/public/images/battleboat/blank.png"
       inkscape:export-xdpi="96"
       inkscape:export-ydpi="96" />
    <rect
       ry="1.3651876"
       rx="1.3651876"
       y="305.87833"
       x="146.88573"
       height="19.502682"
       width="19.502682"
       id="rect3282"
       style="opacity:1;fill:none;fill-opacity:1;stroke:none;stroke-width:0.49731839;stroke-linecap:butt;stroke-miterlimit:10;stroke-dasharray:none;stroke-dashoffset:0;stroke-opacity:1"
       inkscape:export-filename="/home/poletti/sviluppo/perl/bogaser/www/public/images/battleboat/tblank.png"
       inkscape:export-xdpi="96"
       inkscape:export-ydpi="96" />
    <path
       d="M 302.25263,300.05206 A 22.419838,22.419838 0 1 1 257.41296,300.05206 A 22.419838,22.419838 0 1 1 302.25263,300.05206 z"
       sodipodi:ry="22.419838"
       sodipodi:rx="22.419838"
       sodipodi:cy="300.05206"
       sodipodi:cx="279.83279"
       id="path3286"
       style="fill:#aaaaaa;fill-opacity:1;stroke:#000000;stroke-width:6.25294256;stroke-linecap:butt;stroke-miterlimit:10;stroke-dasharray:none;stroke-dashoffset:0;stroke-opacity:1"
       sodipodi:type="arc"
       transform="matrix(7.9533496e-2,0,0,7.9533496e-2,134.31424,291.7812)"
       inkscape:export-filename="/home/poletti/sviluppo/perl/bogaser/www/public/images/battleboat/tblank.png"
       inkscape:export-xdpi="96"
       inkscape:export-ydpi="96" />
    <rect
       style="opacity:1;fill:#4d4d4d;fill-opacity:1;stroke:#1a1a1a;stroke-width:1;stroke-linecap:butt;stroke-miterlimit:10;stroke-dasharray:none;stroke-dashoffset:0;stroke-opacity:1"
       id="rect3294"
       width="97.513412"
       height="19.502682"
       x="53.638538"
       y="330.02771"
       rx="1.365"
       ry="1.3651876"
       inkscape:export-filename="/home/poletti/sviluppo/perl/bogaser/www/public/images/battleboat/b5-f.png"
       inkscape:export-xdpi="96"
       inkscape:export-ydpi="96" />
    <path
       style="opacity:1;fill:#1a1a1a;fill-opacity:1;stroke:none;stroke-width:0.39500001;stroke-linecap:butt;stroke-miterlimit:4;stroke-dasharray:0.395, 0.395;stroke-dashoffset:0;stroke-opacity:1"
       d="M 97.625 333.40625 C 96.86879 333.40625 96.28125 334.02495 96.28125 334.78125 L 96.28125 344.78125 C 96.28125 345.53756 96.868792 346.15624 97.625 346.15625 L 119.875 346.15625 C 120.63121 346.15625 121.25 345.53757 121.25 344.78125 L 121.25 343.28125 L 133.25 343.28125 C 134.00621 343.28125 134.62501 342.69382 134.625 341.9375 L 134.625 341.09375 L 146.15625 341.09375 C 146.91246 341.09375 147.50001 340.50444 147.5 339.78125 C 147.5 339.05807 146.91246 338.46875 146.15625 338.46875 L 134.625 338.46875 L 134.625 337.625 C 134.625 336.86869 134.00621 336.28125 133.25 336.28125 L 121.25 336.28125 L 121.25 334.78125 C 121.25 334.02494 120.63121 333.40625 119.875 333.40625 L 97.625 333.40625 z "
       id="rect3296"
       inkscape:export-filename="/home/poletti/sviluppo/perl/bogaser/www/public/images/battleboat/b5-f.png"
       inkscape:export-xdpi="96"
       inkscape:export-ydpi="96" />
    <rect
       style="opacity:1;fill:#1a1a1a;fill-opacity:1;stroke:none;stroke-width:0.39500001;stroke-linecap:butt;stroke-miterlimit:4;stroke-dasharray:0.395, 0.395;stroke-dashoffset:0;stroke-opacity:1"
       id="rect3302"
       width="14.359091"
       height="9.9534607"
       x="58.252216"
       y="334.80231"
       rx="1.365"
       ry="1.3651876"
       inkscape:export-filename="/home/poletti/sviluppo/perl/bogaser/www/public/images/battleboat/b5-f.png"
       inkscape:export-xdpi="96"
       inkscape:export-ydpi="96" />
    <rect
       inkscape:export-ydpi="90"
       inkscape:export-xdpi="90"
       inkscape:export-filename="/home/poletti/sviluppo/perl/bogaser/www/public/images/battleboat/b2-f.png"
       ry="10.167589"
       rx="10.858417"
       y="354.65436"
       x="53.470947"
       height="20.335178"
       width="41.335178"
       id="rect3305"
       style="opacity:1;fill:#4d4d4d;fill-opacity:1;stroke:#1a1a1a;stroke-width:0.66482085;stroke-linecap:butt;stroke-miterlimit:10;stroke-dasharray:none;stroke-dashoffset:0;stroke-opacity:1" />
    <path
       style="opacity:1;fill:#1a1a1a;fill-opacity:1;stroke:none;stroke-width:0.39500001;stroke-linecap:butt;stroke-miterlimit:4;stroke-dasharray:0.395, 0.395;stroke-dashoffset:0;stroke-opacity:1"
       d="M 70.384352,357.63445 C 69.628142,357.63445 69.040602,358.51212 69.040602,359.6032 L 69.040602,370.0407 C 69.040602,371.13178 69.62814,372.00944 70.384352,372.00945 L 82.009352,372.00945 C 82.765562,372.00945 83.38435,371.13177 83.384352,370.0407 L 83.384352,369.7282 L 91.978102,369.7282 C 92.734312,369.7282 93.3531,369.50742 93.353102,369.25945 L 93.353102,366.9157 C 93.353102,366.66773 92.734316,366.44695 91.978102,366.44695 L 83.384352,366.44695 L 83.384352,363.19695 L 91.821852,363.19695 C 92.578062,363.19695 93.1656,362.97617 93.165602,362.7282 L 93.165602,360.38445 C 93.165602,360.13648 92.578066,359.9157 91.821852,359.9157 L 83.384352,359.9157 L 83.384352,359.6032 C 83.384352,358.51212 82.765566,357.63445 82.009352,357.63445 L 70.384352,357.63445 z"
       id="rect3311"
       inkscape:export-filename="/home/poletti/sviluppo/perl/bogaser/www/public/images/battleboat/b2-f.png"
       inkscape:export-xdpi="90"
       inkscape:export-ydpi="90" />
    <rect
       inkscape:export-ydpi="90"
       inkscape:export-xdpi="90"
       inkscape:export-filename="/home/poletti/sviluppo/perl/bogaser/www/public/images/battleboat/b2-f.png"
       ry="0.80568451"
       rx="0.86863637"
       y="356.82654"
       x="56.825615"
       height="5.8741736"
       width="9.1376038"
       id="rect3324"
       style="fill:#1a1a1a;fill-opacity:1;stroke:none;stroke-width:0.39500001;stroke-linecap:butt;stroke-miterlimit:4;stroke-dasharray:0.395, 0.395;stroke-dashoffset:0;stroke-opacity:1" />
    <rect
       style="fill:#1a1a1a;fill-opacity:1;stroke:none;stroke-width:0.39500001;stroke-linecap:butt;stroke-miterlimit:4;stroke-dasharray:0.395, 0.395;stroke-dashoffset:0;stroke-opacity:1"
       id="rect3326"
       width="9.1376038"
       height="5.8741736"
       x="56.825615"
       y="366.94318"
       rx="0.86863637"
       ry="0.80568451"
       inkscape:export-filename="/home/poletti/sviluppo/perl/bogaser/www/public/images/battleboat/b2-f.png"
       inkscape:export-xdpi="90"
       inkscape:export-ydpi="90" />
    <rect
       style="opacity:1;fill:#4d4d4d;fill-opacity:1;stroke:#1a1a1a;stroke-width:0.81248212;stroke-linecap:butt;stroke-miterlimit:10;stroke-dasharray:none;stroke-dashoffset:0;stroke-opacity:1"
       id="rect3334"
       width="62.187519"
       height="20.187517"
       x="107.39137"
       y="354.72818"
       rx="19.068432"
       ry="10.093759"
       inkscape:export-filename="/home/poletti/sviluppo/perl/bogaser/www/public/images/battleboat/boat-tre_1-east.png"
       inkscape:export-xdpi="90"
       inkscape:export-ydpi="90" />
    <path
       inkscape:export-ydpi="90"
       inkscape:export-xdpi="90"
       inkscape:export-filename="/home/poletti/sviluppo/perl/bogaser/www/public/images/battleboat/boat-tre_1-east.png"
       id="path3336"
       d="M 138.42686,357.63445 C 137.67065,357.63445 137.08311,358.51212 137.08311,359.6032 L 137.08311,370.0407 C 137.08311,371.13178 137.67065,372.00944 138.42686,372.00945 L 150.05186,372.00945 C 150.80807,372.00945 151.42686,371.13177 151.42686,370.0407 L 151.42686,369.7282 L 160.02061,369.7282 C 160.77682,369.7282 161.39561,369.50742 161.39561,369.25945 L 161.39561,366.9157 C 161.39561,366.66773 160.77683,366.44695 160.02061,366.44695 L 151.42686,366.44695 L 151.42686,363.19695 L 159.86436,363.19695 C 160.62057,363.19695 161.20811,362.97617 161.20811,362.7282 L 161.20811,360.38445 C 161.20811,360.13648 160.62058,359.9157 159.86436,359.9157 L 151.42686,359.9157 L 151.42686,359.6032 C 151.42686,358.51212 150.80808,357.63445 150.05186,357.63445 L 138.42686,357.63445 z"
       style="opacity:1;fill:#1a1a1a;fill-opacity:1;stroke:none;stroke-width:0.39500001;stroke-linecap:butt;stroke-miterlimit:4;stroke-dasharray:0.395, 0.395;stroke-dashoffset:0;stroke-opacity:1" />
    <rect
       style="fill:#1a1a1a;fill-opacity:1;stroke:none;stroke-width:0.39500001;stroke-linecap:butt;stroke-miterlimit:4;stroke-dasharray:0.395, 0.395;stroke-dashoffset:0;stroke-opacity:1"
       id="rect3338"
       width="9.1376038"
       height="5.8741736"
       x="118.6676"
       y="356.82654"
       rx="0.86863637"
       ry="0.80568451"
       inkscape:export-filename="/home/poletti/sviluppo/perl/bogaser/www/public/images/battleboat/boat-tre_1-east.png"
       inkscape:export-xdpi="90"
       inkscape:export-ydpi="90" />
    <rect
       inkscape:export-ydpi="90"
       inkscape:export-xdpi="90"
       inkscape:export-filename="/home/poletti/sviluppo/perl/bogaser/www/public/images/battleboat/boat-tre_1-east.png"
       ry="0.80568451"
       rx="0.86863637"
       y="366.94318"
       x="118.6676"
       height="5.8741736"
       width="9.1376038"
       id="rect3340"
       style="fill:#1a1a1a;fill-opacity:1;stroke:none;stroke-width:0.39500001;stroke-linecap:butt;stroke-miterlimit:4;stroke-dasharray:0.395, 0.395;stroke-dashoffset:0;stroke-opacity:1" />
    <rect
       inkscape:export-ydpi="90"
       inkscape:export-xdpi="90"
       inkscape:export-filename="/home/poletti/sviluppo/perl/narsil/narsil-fe/www/public/images/battleboat/boat-quattro-east.png"
       ry="10.031937"
       rx="25.469706"
       y="389.38235"
       x="64.049583"
       height="20.063873"
       width="83.063873"
       id="rect2447"
       style="opacity:1;fill:#4d4d4d;fill-opacity:1;stroke:#1a1a1a;stroke-width:0.93612581;stroke-linecap:butt;stroke-miterlimit:10;stroke-dasharray:none;stroke-dashoffset:0;stroke-opacity:1" />
    <path
       style="fill:#1a1a1a;fill-opacity:1;stroke:none;stroke-width:0.39500001;stroke-linecap:butt;stroke-miterlimit:4;stroke-dasharray:0.395, 0.395;stroke-dashoffset:0;stroke-opacity:1"
       d="M 116.634,392.22679 C 115.87779,392.22679 115.29025,393.10446 115.29025,394.19554 L 115.29025,404.63304 C 115.29025,405.72412 115.87779,406.60178 116.634,406.60179 L 128.25901,406.60179 C 129.01522,406.60179 129.63401,405.72411 129.63401,404.63304 L 129.63401,404.32054 L 138.22776,404.32054 C 138.98397,404.32054 139.60276,404.09976 139.60276,403.85179 L 139.60276,401.50804 C 139.60276,401.26007 138.98398,401.03929 138.22776,401.03929 L 129.63401,401.03929 L 129.63401,397.78929 L 138.07151,397.78929 C 138.82772,397.78929 139.41526,397.56851 139.41526,397.32054 L 139.41526,394.97679 C 139.41526,394.72882 138.82773,394.50804 138.07151,394.50804 L 129.63401,394.50804 L 129.63401,394.19554 C 129.63401,393.10446 129.01523,392.22679 128.25901,392.22679 L 116.634,392.22679 z"
       id="path2449"
       inkscape:export-filename="/home/poletti/sviluppo/perl/narsil/narsil-fe/www/public/images/battleboat/boat-quattro-east.png"
       inkscape:export-xdpi="90"
       inkscape:export-ydpi="90" />
    <rect
       inkscape:export-ydpi="90"
       inkscape:export-xdpi="90"
       inkscape:export-filename="/home/poletti/sviluppo/perl/narsil/narsil-fe/www/public/images/battleboat/boat-quattro-east.png"
       ry="0.80568451"
       rx="0.86863637"
       y="396.4772"
       x="101.01272"
       height="5.8741736"
       width="9.1376038"
       id="rect2451"
       style="fill:#1a1a1a;fill-opacity:1;stroke:none;stroke-width:0.39500001;stroke-linecap:butt;stroke-miterlimit:4;stroke-dasharray:0.395, 0.395;stroke-dashoffset:0;stroke-opacity:1" />
    <path
       inkscape:export-ydpi="90"
       inkscape:export-xdpi="90"
       inkscape:export-filename="/home/poletti/sviluppo/perl/narsil/narsil-fe/www/public/images/battleboat/boat-quattro-east.png"
       id="path2455"
       d="M 94.529045,392.22679 C 95.285255,392.22679 95.872795,393.10446 95.872795,394.19554 L 95.872795,404.63304 C 95.872795,405.72412 95.285255,406.60178 94.529045,406.60179 L 82.904035,406.60179 C 82.147825,406.60179 81.529035,405.72411 81.529035,404.63304 L 81.529035,404.32054 L 72.935285,404.32054 C 72.179075,404.32054 71.560285,404.09976 71.560285,403.85179 L 71.560285,401.50804 C 71.560285,401.26007 72.179065,401.03929 72.935285,401.03929 L 81.529035,401.03929 L 81.529035,397.78929 L 73.091535,397.78929 C 72.335325,397.78929 71.747785,397.56851 71.747785,397.32054 L 71.747785,394.97679 C 71.747785,394.72882 72.335315,394.50804 73.091535,394.50804 L 81.529035,394.50804 L 81.529035,394.19554 C 81.529035,393.10446 82.147815,392.22679 82.904035,392.22679 L 94.529045,392.22679 z"
       style="fill:#1a1a1a;fill-opacity:1;stroke:none;stroke-width:0.39500001;stroke-linecap:butt;stroke-miterlimit:4;stroke-dasharray:0.395, 0.395;stroke-dashoffset:0;stroke-opacity:1" />
  </g>
</svg>
